<?xml version="1.0" encoding="utf-8"?>
<!-- Generator: Adobe Illustrator 24.0.0, SVG Export Plug-In . SVG Version: 6.00 Build 0)  -->
<svg version="1.1" id="Layer_1" xmlns="http://www.w3.org/2000/svg" xmlns:xlink="http://www.w3.org/1999/xlink" x="0px" y="0px"
	 viewBox="0 0 401.81 270.01" style="enable-background:new 0 0 401.81 270.01;" xml:space="preserve">
<style type="text/css">
	.st0{fill:#0F2810;}
	.st1{fill:none;stroke:#AC5810;stroke-miterlimit:10;}
	.st2{fill:#AC5810;}
	.st3{fill:#FFFFFF;}
	.st4{fill:none;stroke:#AC5810;stroke-width:0.5;}
</style>
<g>
	<g>
		<path class="st0" d="M202.87,177.64c-1.05-20.07-103.28-50.57-87.07-168.72C142.43,14.64,179.31,0,201.26,0
			c22.57,0,65.45,15.47,88.66,8.7C306.13,126.86,203.93,157.57,202.87,177.64"/>
		<path class="st1" d="M202.87,177.64c-1.05-20.07-103.28-50.57-87.07-168.72C142.43,14.64,179.31,0,201.26,0
			c22.57,0,65.45,15.47,88.66,8.7C306.13,126.86,203.93,157.57,202.87,177.64"/>
		<path class="st2" d="M241.67,18.54c-19.47-5.2-28.53,9.91-30.83,18.74c0,0-2.17-1.45-5.44-3.75c7.5-7.14,4.84-17.41-0.73-21.28
			c-3.5-2.78-9.19-2.54-9.19,0.6c0,3.14,4.35,3.27,5.05,0.73c3.13-1.71,6.56,2.78,6.8,7.01c0.24,4.23-0.73,9.79-3.86,11.37
			c-6.05-4.84-19.83-14.18-34.22-15.48c-11.24-0.97-16.68,5.69-16.81,12.7c-0.12,4.47,3.27,13.54,19.71,15.11
			c16.56,1.57,26.72-4.83,31.07-8.35c0,0,1.45,1.21,6.77,3.39v21.28c-4.47,0-11.24,3.26-13.66,6.28c0,0-0.12-4.59,0-6.04
			c0.12-1.45,1.57-3.14,3.78-4.23c0.15,1.09,2.63,1.69,3.6,1.57c0.96-0.12,2.66-3.02,0.48-4.11c-2.17-1.09-5.32,0.36-7.85,3.75
			v-4.11l-4.72,1.33v19.23h-1.45c0,0,0.73-14.99-0.36-18.62c-5.77-9.62-14.15-7.98-18.38-4.6c-3.14,2.18-7.98,15.6,3.99,18.98
			c5.44,1.09,7.98-1.69,7.13-3.39c-0.85-1.69-3.75-2.17-4.59,1.45c-9.56-0.84-9.07-15.47-1.81-16.32c5.68-1.09,9.43,3.14,9.43,7.38
			v43.28c-1.45-0.97-18.14-12.45-30.59-6.53c-12.45,5.93-11.37,28.17,6.89,30.83c18.26,2.66,26.35-11.85,27.44-18.62
			c0,0,3.51,2.29,5.81,3.75c-7.05,8.7-4.96,19.1,1.21,21.77c4.83,2.29,8.46,0.48,8.46-1.69c0-2.18-4.59-3.51-5.08,0
			c-10.15-1.94-7.37-17.05-2.89-18.98c0.85,1.45,16.57,11.96,25.02,14.14c17.66,6.17,25-3.78,25.88-7.62
			c1.62-7.04,1.09-16.07-16.68-18.49c-17.78-2.41-29.07,4.81-33.36,8.1c-1.45-0.61-3.99-2.42-7.5-4.35V79.35
			c0.13,1.82,2.66,5.8,6.41,6.65c3.75,0.84,5.32-1.7,4.84-2.78c-0.49-1.09-3.26-1.69-2.42,1.21c-7.01,0.6-7.01-4.96-6.89-8.47
			c0.73,0,15.23,0.85,17.89-0.24c0,0-0.49,8.46,0.49,13.3c2.46,10.13,17.94,8.14,20.57,3.14c1.29-2.46,3.73-12.81-3.65-16.32
			c-7.37-3.51-10.03,1.45-9.44,3.14c0.62,1.69,4.24,0.61,3.76-1.33c4.1-1.33,6.76,1.33,7.5,3.87c0.72,2.54,1.57,11.78-6.41,11.78
			c-7.98,0-8.59-5.01-8.59-7.18V73.91c6.17-2.9,4.47-12.33,0.24-12.81V42.96c27.81,17.05,37.48,3.14,38.57-3.38
			C255.7,24.94,246.27,20.59,241.67,18.54 M177.98,41.51c-16.2,0.23-21.06-6.4-22.27-9.67c-1.21-3.26,0.85-11.34,10.39-11.24
			c14.28,0.85,24.31,7.37,33.38,14.61C199.48,35.2,190.41,40.91,177.98,41.51 M171.06,122.03c-9.79,2.89-18.86-2.78-20.54-7.86
			c-1.69-5.08,0.28-15.17,8.58-16.32c8.3-1.16,18.02,2.05,26.12,7.86C185.08,108.25,180.86,119.13,171.06,122.03 M239.26,107.52
			c3.74,1.82,8.14,5.64,3.98,13.42c-3.49,5.56-16.08,5.02-26.23-0.12c-7.95-4.02-12.58-6.86-16.9-10.6
			C208.67,104.62,223.9,100.15,239.26,107.52 M209.63,73.19c-2.17,1.45-13.17,0.96-13.17,0.96v-5.44c2.17-3.03,9.79-6.29,13.17-6.29
			V73.19z M214.22,70.04v-6.41C217.13,64.84,216.28,69.32,214.22,70.04 M250.62,38.12c-0.73,5.32-8.95,12.09-19.95,9.07
			c-11-3.03-15.72-7.38-15.72-7.38c1.09-7.74,7.5-18.26,21.52-17.29C244.09,23.49,251.1,27.73,250.62,38.12"/>
	</g>
	<g>
		<path class="st3" d="M17.46,207.85l-0.01-1.09l-0.02-3.3l-0.03-2.87c-0.01-0.43-0.08-0.69-0.18-0.79
			c-0.17-0.18-0.55-0.31-1.19-0.42l-2.06-0.45v-0.9c2.34,0.11,4.03,0.16,5.06,0.16c1.15,0,2.74-0.05,4.75-0.16v0.9
			c-1.67,0.35-2.6,0.57-2.81,0.66c-0.21,0.1-0.36,0.21-0.44,0.31c-0.1,0.18-0.16,0.74-0.18,1.67c-0.02,1.54-0.03,4.15-0.03,7.87
			l0.06,7.24v0.43c0,0.47,0.08,0.78,0.26,0.92c0.29,0.2,1.34,0.47,3.16,0.79v0.9c-2.79-0.11-4.56-0.16-5.32-0.16
			c-1.25,0-2.77,0.05-4.57,0.16v-0.9l2.8-0.63c0.18-0.08,0.31-0.17,0.4-0.31c0.15-0.22,0.21-0.61,0.23-1.22l0.08-7.2
			c-2.7-0.02-4.75-0.04-6.18-0.04c-1.54,0-3.18,0.02-4.88,0.04l0.04,7.41c0,0.53,0.05,0.87,0.14,1.01c0.11,0.14,0.37,0.26,0.79,0.4
			c0.11,0.03,0.93,0.21,2.49,0.54v0.9c-2.46-0.11-4.2-0.16-5.22-0.16c-1.26,0-2.8,0.05-4.6,0.16v-0.9c1.09-0.25,1.89-0.43,2.43-0.52
			c0.4-0.07,0.66-0.17,0.77-0.31c0.14-0.17,0.23-0.54,0.23-1.09c0.03-1.95,0.04-4.73,0.04-8.35l-0.08-7.57v-0.49
			c0-0.35-0.05-0.6-0.17-0.73c-0.12-0.14-0.36-0.26-0.73-0.34L0,198.93v-0.9c2.06,0.11,3.77,0.16,5.14,0.16
			c1.44,0,3.03-0.05,4.74-0.16v0.9l-2.57,0.52c-0.32,0.07-0.55,0.18-0.67,0.35c-0.12,0.14-0.18,0.39-0.18,0.77l-0.07,7.28
			c1.57,0.02,3.23,0.03,4.99,0.03C13.63,207.87,15.67,207.86,17.46,207.85z"/>
		<path class="st3" d="M31.3,207.61h3.73c1.44,0,2.29-0.03,2.55-0.1c0.26-0.08,0.47-0.24,0.62-0.47c0.17-0.23,0.36-0.93,0.6-2.06
			c0.03-0.11,0.08-0.28,0.13-0.52h1.01c-0.11,1.68-0.17,2.98-0.17,3.9c0,0.92,0.06,2.22,0.17,3.84h-1.01
			c-0.29-1.48-0.47-2.29-0.54-2.47c-0.11-0.24-0.29-0.41-0.54-0.53c-0.26-0.1-1.02-0.16-2.29-0.16h-4.21l0.07,9.04h6.41l0.57-0.01
			c0.88,0,1.43-0.03,1.66-0.11c0.39-0.13,0.72-0.36,1.02-0.66c0.3-0.31,0.85-1.19,1.64-2.62c0.07-0.15,0.2-0.36,0.37-0.63h1.07
			c-0.13,0.33-0.76,2.22-1.9,5.68c-3.7-0.11-7.08-0.16-10.14-0.16c-2.14,0-4.51,0.05-7.08,0.16v-0.9l2.46-0.54
			c0.4-0.12,0.64-0.23,0.74-0.34c0.15-0.2,0.23-0.59,0.23-1.2v-0.28l0.07-3.59c0.02-0.69,0.02-2.05,0.02-4.07
			c0-2.95-0.01-5.11-0.03-6.47c-0.01-1.38-0.06-2.16-0.15-2.33c-0.07-0.13-0.16-0.22-0.28-0.3c-0.12-0.08-0.59-0.21-1.39-0.4
			l-1.63-0.37v-0.9c1.91,0.11,4.19,0.16,6.84,0.16c1.45,0,4.9-0.05,10.35-0.16c0.02,1.77,0.15,3.52,0.37,5.23h-1.07
			c-0.41-1.38-0.74-2.31-1-2.76c-0.17-0.32-0.39-0.52-0.64-0.62c-0.35-0.14-1.09-0.21-2.25-0.21h-6.22l-0.1,4.93L31.3,207.61z"/>
		<path class="st3" d="M45.85,198.93v-0.9c2.71,0.11,4.87,0.16,6.49,0.16c0.95,0,1.83-0.01,2.65-0.02c1.08-0.03,1.83-0.03,2.25-0.03
			c1.98,0,3.49,0.47,4.49,1.39c1.01,0.95,1.5,2.22,1.5,3.83c0,1.08-0.22,2.04-0.68,2.85c-0.45,0.84-1.11,1.53-1.97,2.11
			c-0.62,0.4-1.51,0.76-2.66,1.09l5.08,6.64c0.63,0.83,1.03,1.32,1.19,1.45c0.25,0.21,0.59,0.4,0.99,0.57
			c0.58,0.21,1.53,0.47,2.89,0.77v0.9c-1.61-0.11-2.77-0.17-3.51-0.17c-0.85,0-1.71,0.06-2.6,0.17c-0.46-0.77-1.08-1.73-1.87-2.88
			c-0.79-1.15-1.26-1.84-1.44-2.07c-0.1-0.12-0.19-0.24-0.28-0.37L55,209.78c-0.9-0.01-1.82-0.08-2.74-0.2l0.12,7.71
			c0.02,0.3,0.11,0.54,0.28,0.69c0.24,0.21,1.01,0.42,2.3,0.66c0.19,0.03,0.46,0.1,0.84,0.19v0.9c-1.84-0.11-3.47-0.16-4.88-0.16
			c-1.5,0-3.19,0.05-5.06,0.16v-0.9l0.67-0.14c1.45-0.28,2.28-0.5,2.48-0.67c0.2-0.18,0.31-0.51,0.34-0.97
			c0.03-0.3,0.05-2.91,0.08-7.85l-0.06-7.18c-0.01-1.11-0.04-1.73-0.08-1.9c-0.05-0.16-0.15-0.29-0.31-0.36
			c-0.5-0.28-1.29-0.49-2.36-0.68C46.43,199.06,46.18,199,45.85,198.93z M52.25,208.29c1.06,0.11,1.88,0.17,2.46,0.17
			c1.86,0,3.23-0.42,4.13-1.24c0.89-0.83,1.34-1.98,1.34-3.45c0-1.28-0.4-2.3-1.19-3.05c-0.79-0.73-1.94-1.11-3.44-1.11
			c-0.55,0-1.62,0.06-3.21,0.19L52.25,208.29z"/>
		<path class="st3" d="M78.45,198.03v0.9c-0.35,0.08-0.61,0.13-0.78,0.16c-1.33,0.24-2.12,0.46-2.33,0.68
			c-0.2,0.21-0.31,0.67-0.31,1.39v0.54l-0.08,6.15l0.04,8.92c0,0.73,0.11,1.18,0.32,1.38c0.2,0.19,0.92,0.36,2.14,0.51
			c0.23,0.02,0.57,0.08,1.02,0.17v0.9c-1.63-0.11-3.21-0.16-4.72-0.16c-1.57,0-3.3,0.05-5.15,0.16v-0.9
			c0.28-0.09,0.5-0.14,0.66-0.17c1.42-0.23,2.24-0.45,2.45-0.64c0.2-0.21,0.3-0.7,0.3-1.51L72,215.75l0.05-5.61
			c0-5.77-0.02-8.96-0.05-9.57c-0.02-0.33-0.13-0.6-0.33-0.77c-0.18-0.19-0.96-0.42-2.29-0.68c-0.18-0.04-0.46-0.1-0.81-0.18v-0.9
			c2.21,0.11,3.94,0.16,5.17,0.16C75.12,198.19,76.7,198.14,78.45,198.03z"/>
		<path class="st3" d="M80.97,204h-1.16c0.19-1.77,0.37-3.76,0.52-5.97c4.51,0.11,7.72,0.16,9.65,0.16c1.6,0,4.51-0.05,8.73-0.16
			c0.13,2.28,0.28,4.27,0.46,5.97h-1.13c-0.47-1.87-0.79-2.97-0.93-3.29c-0.15-0.33-0.35-0.55-0.62-0.7
			c-0.27-0.13-0.95-0.21-2.05-0.21h-3.41c-0.08,2.71-0.11,6.06-0.11,10.07c0,3.72,0.03,6.23,0.11,7.53c0.03,0.3,0.11,0.52,0.23,0.63
			c0.18,0.13,1.02,0.35,2.52,0.65c0.14,0.02,0.36,0.06,0.65,0.14v0.9c-2.02-0.11-3.81-0.16-5.39-0.16c-1.5,0-3.03,0.05-4.59,0.16
			v-0.9c0.35-0.09,0.63-0.16,0.81-0.19c1.39-0.24,2.19-0.43,2.4-0.58c0.1-0.08,0.16-0.21,0.21-0.35c0.05-0.15,0.08-1.28,0.12-3.38
			c0.03-3.26,0.06-5.68,0.06-7.25c0-2.74-0.02-5.16-0.06-7.25h-3.65l-0.66,0.02c-0.58,0-0.96,0.06-1.15,0.18
			c-0.29,0.17-0.54,0.55-0.77,1.12C81.59,201.56,81.32,202.51,80.97,204z"/>
		<path class="st3" d="M109.84,197.67h0.97c1.37,3.53,3.07,7.54,5.06,12.03l3.56,7.78c0.17,0.27,0.34,0.47,0.54,0.61
			c0.13,0.1,0.89,0.33,2.24,0.73v0.9c-1.84-0.11-3.21-0.16-4.08-0.16c-0.9,0-2.43,0.05-4.59,0.16v-0.9
			c1.23-0.25,1.95-0.45,2.15-0.61c0.21-0.15,0.31-0.32,0.31-0.55c0-0.21-0.11-0.57-0.32-1.08l-1.56-3.74
			c-2.16-0.01-3.73-0.03-4.71-0.03l-4.17,0.03l-1.62,3.88c-0.26,0.63-0.39,1.01-0.39,1.16c0,0.13,0.06,0.25,0.19,0.33
			c0.12,0.08,0.72,0.24,1.78,0.46c0.12,0.03,0.27,0.08,0.48,0.14v0.9c-1.74-0.11-2.97-0.16-3.68-0.16c-0.91,0-2.06,0.05-3.48,0.16
			v-0.9c0.92-0.21,1.56-0.44,1.91-0.69c0.25-0.2,0.51-0.52,0.79-0.99c0.57-1,2.05-4.24,4.42-9.73L109.84,197.67z M105.85,211.33
			c1.4,0.04,2.4,0.06,3.01,0.06c0.18,0,1.73-0.02,4.66-0.06l-3.84-9.15L105.85,211.33z"/>
		<path class="st3" d="M147.19,208.55v0.85l-2.34,0.56c-0.25,0.06-0.43,0.16-0.54,0.27c-0.11,0.12-0.19,0.28-0.22,0.51
			c-0.08,0.46-0.12,1.61-0.12,3.43c0,1.1,0.04,2.6,0.12,4.48c-0.45,0.06-1.41,0.26-2.89,0.62c-1.92,0.43-3.16,0.66-3.66,0.72
			c-0.99,0.12-2.03,0.18-3.14,0.18c-3.58,0-6.34-0.95-8.26-2.85c-1.93-1.9-2.89-4.49-2.89-7.77c0-3.54,1.13-6.43,3.38-8.65
			c2.25-2.21,5.25-3.32,8.99-3.32c0.94,0,1.84,0.05,2.69,0.16c0.2,0.03,1.93,0.34,5.22,0.94c-0.01,0.57-0.01,1.01-0.01,1.34
			c0,1.36,0.06,2.91,0.19,4.62h-1.13c-0.46-1.73-0.91-2.88-1.31-3.43c-0.41-0.54-1.08-1-2.02-1.35c-1.22-0.47-2.54-0.69-3.97-0.69
			c-3.15,0-5.52,1.2-7.11,3.58c-1.11,1.67-1.67,3.74-1.67,6.19c0,3.15,0.89,5.53,2.63,7.14c1.75,1.62,3.97,2.44,6.64,2.44
			c1.69,0,3.46-0.36,5.32-1.07c0.04-1.1,0.06-2.72,0.06-4.83c0-1.14-0.03-1.82-0.09-2.02c-0.06-0.2-0.18-0.37-0.36-0.49
			c-0.23-0.13-0.92-0.32-2.06-0.56l-0.59-0.13v-0.85l5.22,0.1C144.42,208.65,145.73,208.62,147.19,208.55z"/>
		<path class="st3" d="M154.52,207.61h3.74c1.44,0,2.29-0.03,2.55-0.1c0.26-0.08,0.47-0.24,0.62-0.47c0.17-0.23,0.36-0.93,0.59-2.06
			c0.04-0.11,0.08-0.28,0.14-0.52h1c-0.11,1.68-0.16,2.98-0.16,3.9c0,0.92,0.05,2.22,0.16,3.84h-1c-0.3-1.48-0.48-2.29-0.55-2.47
			c-0.11-0.24-0.27-0.41-0.54-0.53c-0.26-0.1-1.02-0.16-2.3-0.16h-4.21l0.08,9.04h6.4l0.57-0.01c0.88,0,1.43-0.03,1.66-0.11
			c0.39-0.13,0.73-0.36,1.02-0.66c0.3-0.31,0.85-1.19,1.64-2.62c0.08-0.15,0.21-0.36,0.37-0.63h1.07c-0.12,0.33-0.75,2.22-1.89,5.68
			c-3.7-0.11-7.09-0.16-10.14-0.16c-2.13,0-4.5,0.05-7.08,0.16v-0.9l2.46-0.54c0.4-0.12,0.64-0.23,0.73-0.34
			c0.15-0.2,0.23-0.59,0.23-1.2v-0.28l0.08-3.59c0.01-0.69,0.01-2.05,0.01-4.07c0-2.95-0.01-5.11-0.03-6.47
			c-0.03-1.38-0.08-2.16-0.16-2.33c-0.06-0.13-0.15-0.22-0.27-0.3c-0.13-0.08-0.6-0.21-1.39-0.4l-1.63-0.37v-0.9
			c1.91,0.11,4.19,0.16,6.84,0.16c1.46,0,4.91-0.05,10.36-0.16c0.01,1.77,0.15,3.52,0.37,5.23h-1.07c-0.4-1.38-0.74-2.31-0.99-2.76
			c-0.18-0.32-0.39-0.52-0.66-0.62c-0.33-0.14-1.09-0.21-2.24-0.21h-6.22l-0.11,4.93L154.52,207.61z"/>
		<path class="st3" d="M177.05,198.93v-0.9c2.7,0.11,4.86,0.16,6.5,0.16c0.94,0,1.82-0.01,2.63-0.02c1.09-0.03,1.82-0.03,2.25-0.03
			c1.98,0,3.49,0.47,4.5,1.39c1,0.95,1.49,2.22,1.49,3.83c0,1.08-0.23,2.04-0.68,2.85c-0.46,0.84-1.1,1.53-1.97,2.11
			c-0.63,0.4-1.51,0.76-2.67,1.09l5.08,6.64c0.63,0.83,1.03,1.32,1.19,1.45c0.25,0.21,0.59,0.4,0.99,0.57
			c0.58,0.21,1.53,0.47,2.89,0.77v0.9c-1.6-0.11-2.78-0.17-3.52-0.17c-0.84,0-1.71,0.06-2.59,0.17c-0.46-0.77-1.08-1.73-1.86-2.88
			c-0.79-1.15-1.26-1.84-1.44-2.07c-0.1-0.12-0.2-0.24-0.28-0.37l-3.36-4.63c-0.9-0.01-1.82-0.08-2.74-0.2l0.12,7.71
			c0.02,0.3,0.11,0.54,0.28,0.69c0.24,0.21,1,0.42,2.29,0.66c0.19,0.03,0.46,0.1,0.84,0.19v0.9c-1.84-0.11-3.47-0.16-4.88-0.16
			c-1.51,0-3.2,0.05-5.06,0.16v-0.9l0.66-0.14c1.45-0.28,2.27-0.5,2.47-0.67c0.2-0.18,0.32-0.51,0.34-0.97
			c0.03-0.3,0.05-2.91,0.08-7.85l-0.06-7.18c-0.02-1.11-0.04-1.73-0.08-1.9c-0.06-0.16-0.15-0.29-0.3-0.36
			c-0.5-0.28-1.3-0.49-2.37-0.68C177.63,199.06,177.38,199,177.05,198.93z M183.45,208.29c1.06,0.11,1.88,0.17,2.46,0.17
			c1.85,0,3.23-0.42,4.12-1.24c0.9-0.83,1.34-1.98,1.34-3.45c0-1.28-0.39-2.3-1.19-3.05c-0.78-0.73-1.93-1.11-3.44-1.11
			c-0.55,0-1.62,0.06-3.2,0.19L183.45,208.29z"/>
		<path class="st3" d="M205.85,207.61h3.73c1.44,0,2.29-0.03,2.55-0.1c0.26-0.08,0.47-0.24,0.62-0.47c0.17-0.23,0.37-0.93,0.6-2.06
			c0.03-0.11,0.08-0.28,0.14-0.52h1c-0.11,1.68-0.17,2.98-0.17,3.9c0,0.92,0.05,2.22,0.17,3.84h-1c-0.31-1.48-0.48-2.29-0.55-2.47
			c-0.1-0.24-0.28-0.41-0.54-0.53c-0.26-0.1-1.02-0.16-2.29-0.16h-4.22l0.08,9.04h6.42l0.56-0.01c0.88,0,1.43-0.03,1.65-0.11
			c0.39-0.13,0.72-0.36,1.03-0.66c0.29-0.31,0.84-1.19,1.63-2.62c0.08-0.15,0.2-0.36,0.37-0.63h1.07c-0.12,0.33-0.76,2.22-1.9,5.68
			c-3.7-0.11-7.08-0.16-10.14-0.16c-2.13,0-4.49,0.05-7.07,0.16v-0.9l2.46-0.54c0.39-0.12,0.63-0.23,0.73-0.34
			c0.15-0.2,0.23-0.59,0.23-1.2v-0.28l0.08-3.59c0.01-0.69,0.01-2.05,0.01-4.07c0-2.95-0.01-5.11-0.03-6.47
			c-0.02-1.38-0.07-2.16-0.15-2.33c-0.07-0.13-0.16-0.22-0.28-0.3c-0.13-0.08-0.59-0.21-1.39-0.4l-1.64-0.37v-0.9
			c1.9,0.11,4.19,0.16,6.84,0.16c1.45,0,4.91-0.05,10.36-0.16c0.01,1.77,0.14,3.52,0.36,5.23h-1.06c-0.41-1.38-0.74-2.31-1-2.76
			c-0.17-0.32-0.39-0.52-0.65-0.62c-0.34-0.14-1.09-0.21-2.24-0.21H206l-0.1,4.93L205.85,207.61z"/>
		<path class="st3" d="M234.39,203.88h-1.16c-0.26-1.31-0.57-2.27-0.9-2.89c-0.34-0.59-0.85-1.07-1.53-1.41
			c-0.68-0.35-1.45-0.52-2.31-0.52c-1.2,0-2.17,0.35-2.88,1.01c-0.72,0.67-1.07,1.49-1.07,2.45c0,0.84,0.28,1.58,0.86,2.22
			c0.56,0.63,1.97,1.42,4.23,2.4c2.26,0.98,3.79,1.99,4.6,3c0.81,1.04,1.21,2.22,1.21,3.51c0,1.17-0.31,2.24-0.9,3.24
			c-0.61,0.99-1.52,1.8-2.74,2.38c-1.21,0.6-2.53,0.9-3.93,0.9c-0.95,0-1.9-0.09-2.88-0.27c-0.96-0.18-2.11-0.5-3.46-0.95
			c0.16-1.44,0.23-3.34,0.23-5.72h1.16c0.33,1.53,0.69,2.6,1.05,3.21c0.35,0.6,0.9,1.1,1.64,1.49c0.73,0.4,1.53,0.59,2.41,0.59
			c1.2,0,2.26-0.33,3.16-1.01c0.91-0.66,1.36-1.61,1.36-2.82c0-1-0.32-1.87-0.98-2.64c-0.66-0.75-2.09-1.6-4.3-2.55
			c-2.21-0.95-3.67-1.87-4.42-2.74c-0.75-0.86-1.12-1.89-1.12-3.09c0-1.05,0.3-2.05,0.91-3c0.6-0.95,1.48-1.7,2.65-2.25
			c1.16-0.55,2.38-0.83,3.63-0.83c1.5,0,3.33,0.37,5.47,1.09c-0.06,1.49-0.07,2.38-0.07,2.69
			C234.32,201.97,234.33,202.81,234.39,203.88z"/>
		<path class="st3" d="M238.54,209.02c0-3.34,1.07-6.09,3.23-8.22c2.16-2.15,4.93-3.22,8.31-3.22c3.16,0,5.66,0.95,7.52,2.84
			c1.87,1.89,2.8,4.5,2.8,7.83c0,3.69-1.04,6.6-3.15,8.73c-2.1,2.13-4.87,3.2-8.29,3.2c-3.21,0-5.75-0.97-7.62-2.9
			C239.47,215.34,238.54,212.59,238.54,209.02z M241.9,208.58c0,3.37,0.73,5.89,2.2,7.58c1.47,1.68,3.33,2.53,5.59,2.53
			c1.49,0,2.8-0.39,3.95-1.19c1.15-0.78,2.01-1.92,2.61-3.45c0.58-1.5,0.88-3.18,0.88-5c0-2.32-0.38-4.23-1.13-5.74
			c-0.75-1.51-1.68-2.6-2.78-3.26c-1.11-0.67-2.37-1-3.75-1c-1.52,0-2.88,0.41-4.08,1.21c-1.19,0.79-2.08,1.95-2.65,3.47
			C242.18,205.25,241.9,206.86,241.9,208.58z"/>
		<path class="st3" d="M262.44,198.93v-0.9c2.7,0.11,4.86,0.16,6.5,0.16c0.93,0,1.81-0.01,2.62-0.02c1.08-0.03,1.83-0.03,2.25-0.03
			c1.99,0,3.49,0.47,4.5,1.39c0.99,0.95,1.5,2.22,1.5,3.83c0,1.08-0.23,2.04-0.69,2.85c-0.45,0.84-1.1,1.53-1.96,2.11
			c-0.62,0.4-1.5,0.76-2.66,1.09l5.08,6.64c0.63,0.83,1.02,1.32,1.19,1.45c0.26,0.21,0.59,0.4,1,0.57c0.57,0.21,1.53,0.47,2.89,0.77
			v0.9c-1.61-0.11-2.79-0.17-3.52-0.17c-0.85,0-1.72,0.06-2.6,0.17c-0.46-0.77-1.09-1.73-1.87-2.88c-0.79-1.15-1.27-1.84-1.44-2.07
			c-0.09-0.12-0.19-0.24-0.29-0.37l-3.36-4.63c-0.9-0.01-1.82-0.08-2.75-0.2l0.13,7.71c0.02,0.3,0.12,0.54,0.27,0.69
			c0.24,0.21,1.01,0.42,2.3,0.66c0.18,0.03,0.47,0.1,0.84,0.19v0.9c-1.85-0.11-3.48-0.16-4.88-0.16c-1.51,0-3.2,0.05-5.06,0.16v-0.9
			l0.66-0.14c1.45-0.28,2.28-0.5,2.49-0.67c0.2-0.18,0.3-0.51,0.35-0.97c0.01-0.3,0.04-2.91,0.08-7.85l-0.06-7.18
			c0-1.11-0.04-1.73-0.09-1.9c-0.04-0.16-0.14-0.29-0.29-0.36c-0.5-0.28-1.29-0.49-2.38-0.68
			C263.02,199.06,262.77,199,262.44,198.93z M268.83,208.29c1.07,0.11,1.89,0.17,2.47,0.17c1.85,0,3.23-0.42,4.13-1.24
			c0.89-0.83,1.34-1.98,1.34-3.45c0-1.28-0.4-2.3-1.19-3.05c-0.79-0.73-1.95-1.11-3.46-1.11c-0.54,0-1.62,0.06-3.21,0.19
			L268.83,208.29z"/>
		<path class="st3" d="M284.82,204h-1.17c0.2-1.77,0.37-3.76,0.53-5.97c4.5,0.11,7.73,0.16,9.65,0.16c1.6,0,4.52-0.05,8.74-0.16
			c0.13,2.28,0.29,4.27,0.45,5.97h-1.12c-0.48-1.87-0.79-2.97-0.93-3.29c-0.15-0.33-0.35-0.55-0.62-0.7
			c-0.27-0.13-0.95-0.21-2.06-0.21h-3.39c-0.08,2.71-0.13,6.06-0.13,10.07c0,3.72,0.04,6.23,0.13,7.53c0.01,0.3,0.09,0.52,0.23,0.63
			c0.17,0.13,1.01,0.35,2.52,0.65c0.14,0.02,0.36,0.06,0.64,0.14v0.9c-2.01-0.11-3.81-0.16-5.39-0.16c-1.49,0-3.03,0.05-4.59,0.16
			v-0.9c0.35-0.09,0.62-0.16,0.8-0.19c1.4-0.24,2.2-0.43,2.41-0.58c0.09-0.08,0.16-0.21,0.21-0.35c0.03-0.15,0.08-1.28,0.11-3.38
			c0.04-3.26,0.06-5.68,0.06-7.25c0-2.74-0.03-5.16-0.06-7.25h-3.64l-0.66,0.02c-0.58,0-0.97,0.06-1.15,0.18
			c-0.29,0.17-0.54,0.55-0.77,1.12C285.43,201.56,285.18,202.51,284.82,204z"/>
		<path class="st3" d="M327.22,206.65v-0.91c1.45,0.12,2.65,0.16,3.63,0.16c1.04,0,2.14-0.05,3.31-0.16v0.87
			c-1.17,0.19-1.99,0.47-2.45,0.86c-0.47,0.39-1.21,1.54-2.22,3.46c-0.73,1.39-1.6,2.71-2.59,3.97c0.96,0.95,1.78,1.6,2.39,1.96
			c0.64,0.35,1.22,0.53,1.77,0.53c0.52,0,1.05-0.11,1.6-0.31c0.57-0.21,1.28-0.6,2.14-1.17l0.72,0.87c-1.7,1.45-2.88,2.34-3.52,2.7
			c-0.64,0.36-1.23,0.53-1.74,0.53c-1.57,0-3.33-1-5.31-2.98c-1.13,1.02-2.24,1.76-3.34,2.25c-1.09,0.47-2.28,0.72-3.56,0.72
			c-1.65,0-2.98-0.52-4.01-1.54c-1.04-1.04-1.55-2.29-1.55-3.77c0-1.28,0.44-2.47,1.31-3.59c0.88-1.09,2.58-2.3,5.1-3.64
			c-0.52-1.13-0.88-2.09-1.09-2.84c-0.19-0.74-0.29-1.47-0.29-2.16c0-1.23,0.56-2.36,1.69-3.37c1.13-1,2.51-1.51,4.15-1.51
			c1.2,0,2.14,0.32,2.83,0.96c0.68,0.64,1.02,1.47,1.02,2.51c0,2.38-1.75,4.43-5.25,6.13c0.59,1.19,1.13,2.2,1.65,3.04
			c0.51,0.84,1.31,2.04,2.38,3.58c0.9-1.17,1.58-2.3,2.02-3.4c0.45-1.07,0.67-1.92,0.67-2.51c0-0.23-0.1-0.44-0.28-0.65
			C328.19,207.04,327.8,206.85,327.22,206.65z M319.39,208.61c-1.02,0.58-1.76,1.09-2.22,1.53c-0.63,0.6-1.09,1.2-1.38,1.82
			c-0.3,0.61-0.45,1.26-0.45,1.94c0,1.15,0.4,2.13,1.21,2.94c0.81,0.81,1.79,1.23,2.96,1.23c1.51-0.03,3.01-0.73,4.49-2.1
			C322.27,213.78,320.73,211.33,319.39,208.61z M321.39,206.02c1.38-0.64,2.35-1.3,2.88-1.96c0.55-0.66,0.81-1.43,0.81-2.31
			c0-0.91-0.23-1.65-0.69-2.18c-0.45-0.55-1-0.81-1.62-0.81c-0.41,0-0.84,0.12-1.24,0.38c-0.41,0.26-0.72,0.62-0.93,1.08
			c-0.19,0.45-0.29,0.97-0.29,1.56C320.31,202.84,320.66,204.27,321.39,206.02z"/>
		<path class="st3" d="M358.48,203.88h-1.16c-0.27-1.31-0.56-2.27-0.9-2.89c-0.34-0.59-0.85-1.07-1.53-1.41
			c-0.69-0.35-1.45-0.52-2.3-0.52c-1.21,0-2.17,0.35-2.88,1.01c-0.72,0.67-1.08,1.49-1.08,2.45c0,0.84,0.29,1.58,0.87,2.22
			c0.56,0.63,1.97,1.42,4.23,2.4c2.25,0.98,3.78,1.99,4.6,3c0.81,1.04,1.21,2.22,1.21,3.51c0,1.17-0.31,2.24-0.92,3.24
			c-0.6,0.99-1.51,1.8-2.74,2.38c-1.21,0.6-2.52,0.9-3.92,0.9c-0.96,0-1.92-0.09-2.89-0.27c-0.96-0.18-2.11-0.5-3.46-0.95
			c0.15-1.44,0.22-3.34,0.22-5.72h1.17c0.34,1.53,0.68,2.6,1.04,3.21c0.37,0.6,0.91,1.1,1.64,1.49c0.73,0.4,1.53,0.59,2.4,0.59
			c1.2,0,2.26-0.33,3.16-1.01c0.92-0.66,1.36-1.61,1.36-2.82c0-1-0.33-1.87-0.99-2.64c-0.66-0.75-2.08-1.6-4.29-2.55
			c-2.21-0.95-3.67-1.87-4.43-2.74c-0.75-0.86-1.11-1.89-1.11-3.09c0-1.05,0.3-2.05,0.9-3c0.6-0.95,1.48-1.7,2.66-2.25
			c1.16-0.55,2.37-0.83,3.63-0.83c1.51,0,3.33,0.37,5.47,1.09c-0.05,1.49-0.08,2.38-0.08,2.69
			C358.41,201.97,358.43,202.81,358.48,203.88z"/>
		<path class="st3" d="M361.87,198.93v-0.9c1.31,0.11,2.98,0.16,5.03,0.16l6.02-0.03c2.23,0,3.87,0.47,4.9,1.42
			c1.02,0.96,1.54,2.26,1.54,3.9c0,1.9-0.69,3.5-2.07,4.79c-1.38,1.28-3.27,1.92-5.69,1.92c-0.93,0-2.04-0.12-3.32-0.39
			c-0.01,1.59-0.02,2.72-0.02,3.41c0,2.58,0.06,4.08,0.16,4.49c0.03,0.19,0.13,0.31,0.28,0.4c0.29,0.17,1.24,0.36,2.85,0.59
			c0.14,0.02,0.35,0.06,0.61,0.13v0.9c-1.93-0.11-3.74-0.16-5.41-0.16c-1.59,0-3.23,0.05-4.88,0.16v-0.9
			c0.4-0.11,0.69-0.17,0.89-0.2c1.34-0.27,2.09-0.47,2.25-0.59c0.25-0.23,0.38-0.83,0.38-1.79l0.05-7.4l-0.01-7.4v-0.34
			c0-0.65-0.11-1.07-0.3-1.25c-0.2-0.18-1.02-0.42-2.48-0.73C362.45,199.08,362.21,199.02,361.87,198.93z M368.29,208.51
			c1.07,0.25,1.99,0.37,2.76,0.37c1.65,0,2.94-0.44,3.84-1.31c0.9-0.87,1.36-2.04,1.36-3.5c0-1.4-0.41-2.5-1.24-3.29
			c-0.84-0.79-2.12-1.19-3.84-1.19c-0.76,0-1.67,0.07-2.75,0.24C368.34,202.9,368.31,205.78,368.29,208.51z"/>
		<path class="st3" d="M389.44,197.67h0.97c1.37,3.53,3.06,7.54,5.06,12.03l3.56,7.78c0.17,0.27,0.34,0.47,0.54,0.61
			c0.13,0.1,0.88,0.33,2.24,0.73v0.9c-1.85-0.11-3.21-0.16-4.09-0.16c-0.9,0-2.42,0.05-4.59,0.16v-0.9
			c1.24-0.25,1.96-0.45,2.16-0.61c0.21-0.15,0.31-0.32,0.31-0.55c0-0.21-0.11-0.57-0.32-1.08l-1.56-3.74
			c-2.15-0.01-3.72-0.03-4.7-0.03l-4.17,0.03l-1.61,3.88c-0.26,0.63-0.4,1.01-0.4,1.16c0,0.13,0.06,0.25,0.19,0.33
			c0.12,0.08,0.72,0.24,1.77,0.46c0.12,0.03,0.27,0.08,0.48,0.14v0.9c-1.75-0.11-2.97-0.16-3.68-0.16c-0.91,0-2.07,0.05-3.49,0.16
			v-0.9c0.93-0.21,1.58-0.44,1.92-0.69c0.24-0.2,0.52-0.52,0.79-0.99c0.57-1,2.05-4.24,4.42-9.73L389.44,197.67z M385.44,211.33
			c1.4,0.04,2.42,0.06,3.02,0.06c0.18,0,1.74-0.02,4.67-0.06l-3.84-9.15L385.44,211.33z"/>
	</g>
	<line class="st4" x1="67.37" y1="240.97" x2="337.04" y2="240.97"/>
	<g>
		<path class="st3" d="M142.2,270.01v-14.56h2.9l3.44,10.31c0.32,0.96,0.55,1.68,0.69,2.16c0.16-0.52,0.43-1.31,0.78-2.34
			l3.51-10.13h2.58v14.56h-1.85v-12.18L150,270.01h-1.74l-4.21-12.4v12.4H142.2z"/>
		<path class="st3" d="M157.6,270.01l5.58-14.56h2.11l5.95,14.56h-2.2l-1.67-4.42h-6.12l-1.6,4.42H157.6z M161.79,264.02h4.96
			l-1.53-4.02c-0.46-1.22-0.8-2.23-1.04-3.02c-0.19,0.95-0.46,1.87-0.79,2.79L161.79,264.02z"/>
		<path class="st3" d="M172.77,270.01v-14.56h5.02c1.13,0,2,0.07,2.6,0.21c0.84,0.19,1.55,0.55,2.13,1.04
			c0.77,0.65,1.35,1.48,1.73,2.5c0.38,1.01,0.57,2.16,0.57,3.46c0,1.1-0.13,2.09-0.39,2.94c-0.26,0.86-0.59,1.56-0.99,2.12
			c-0.41,0.56-0.85,1-1.32,1.33c-0.49,0.32-1.07,0.56-1.74,0.72c-0.68,0.17-1.46,0.25-2.34,0.25H172.77z M174.7,268.3h3.11
			c0.96,0,1.71-0.09,2.26-0.27c0.54-0.18,0.98-0.43,1.31-0.75c0.46-0.46,0.81-1.07,1.06-1.84c0.26-0.77,0.39-1.71,0.39-2.81
			c0-1.52-0.25-2.69-0.75-3.51c-0.5-0.82-1.1-1.37-1.82-1.65c-0.51-0.19-1.35-0.29-2.48-0.29h-3.06V268.3z"/>
		<path class="st3" d="M187.51,270.01v-14.56h1.93v6h7.57v-6h1.93v14.56h-1.93v-6.85h-7.57v6.85H187.51z"/>
		<path class="st3" d="M200.53,270.01l5.57-14.56h2.12l5.94,14.56h-2.19l-1.68-4.42h-6.12l-1.6,4.42H200.53z M204.73,264.02h4.95
			l-1.52-4.02c-0.46-1.22-0.8-2.23-1.04-3.02c-0.2,0.95-0.46,1.87-0.8,2.79L204.73,264.02z"/>
		<path class="st3" d="M215.61,270.01v-14.56h5.46c1.11,0,2,0.15,2.67,0.45c0.67,0.29,1.2,0.75,1.58,1.37
			c0.38,0.61,0.57,1.25,0.57,1.92c0,0.63-0.16,1.22-0.5,1.76c-0.35,0.55-0.86,0.99-1.54,1.33c0.89,0.26,1.56,0.7,2.05,1.32
			c0.47,0.62,0.71,1.36,0.71,2.2c0,0.69-0.15,1.31-0.43,1.9c-0.29,0.59-0.65,1.04-1.07,1.36c-0.42,0.32-0.95,0.56-1.59,0.72
			c-0.64,0.16-1.42,0.24-2.35,0.24H215.61z M217.55,261.58h3.14c0.85,0,1.46-0.06,1.83-0.17c0.49-0.14,0.86-0.39,1.1-0.73
			c0.24-0.34,0.37-0.77,0.37-1.28c0-0.48-0.12-0.91-0.35-1.28c-0.23-0.37-0.56-0.62-0.98-0.76c-0.43-0.14-1.17-0.21-2.21-0.21h-2.9
			V261.58z M217.55,268.3h3.63c0.62,0,1.06-0.02,1.31-0.07c0.44-0.08,0.82-0.21,1.12-0.39c0.3-0.19,0.55-0.46,0.73-0.81
			c0.19-0.36,0.29-0.77,0.29-1.23c0-0.54-0.15-1.01-0.43-1.41c-0.29-0.4-0.67-0.68-1.16-0.85c-0.5-0.16-1.21-0.24-2.12-0.24h-3.36
			V268.3z"/>
		<path class="st3" d="M229.26,270.01v-14.56h5.02c1.13,0,2,0.07,2.6,0.21c0.84,0.19,1.55,0.55,2.13,1.04
			c0.77,0.65,1.35,1.48,1.73,2.5c0.38,1.01,0.58,2.16,0.58,3.46c0,1.1-0.13,2.09-0.39,2.94c-0.26,0.86-0.6,1.56-1,2.12
			c-0.41,0.56-0.85,1-1.33,1.33c-0.48,0.32-1.06,0.56-1.74,0.72c-0.69,0.17-1.46,0.25-2.34,0.25H229.26z M231.2,268.3h3.11
			c0.96,0,1.71-0.09,2.26-0.27c0.55-0.18,0.98-0.43,1.3-0.75c0.46-0.46,0.81-1.07,1.07-1.84c0.26-0.77,0.39-1.71,0.39-2.81
			c0-1.52-0.25-2.69-0.75-3.51c-0.5-0.82-1.1-1.37-1.82-1.65c-0.51-0.19-1.34-0.29-2.49-0.29h-3.06V268.3z"/>
		<path class="st3" d="M244.28,270.01v-14.56h1.93v14.56H244.28z"/>
	</g>
</g>
</svg>
